<?xml version="1.0" encoding="utf-8"?>
<!-- Generator: Adobe Illustrator 21.0.2, SVG Export Plug-In . SVG Version: 6.00 Build 0)  -->
<svg version="1.1" id="Layer_1" xmlns="http://www.w3.org/2000/svg" xmlns:xlink="http://www.w3.org/1999/xlink" x="0px" y="0px"
	 viewBox="0 0 43 35" style="enable-background:new 0 0 43 35;" xml:space="preserve">
<style type="text/css">
	.st0{fill:#FF00A7;}
</style>
<title>Group 4</title>
<desc>Created with Sketch.</desc>
<g id="Page-1">
	<g id="Desktop-HD" transform="translate(-1268.000000, -101.000000)">
		<g id="Group-4" transform="translate(1269.000000, 103.000000)">
			<polygon class="st0" points="20.2,10.3 10.1,1.3 0.7,9.7 -0.7,8.3 10.1,-1.3 20.2,7.7 30.4,-1.3 41.6,8.2 40.4,9.8 30.4,1.3 			
				"/>
			<polygon class="st0" points="20.2,21.3 10.1,12.3 0.7,20.7 -0.7,19.3 10.1,9.7 20.2,18.7 30.4,9.7 41.6,19.2 40.4,20.8 
				30.4,12.3 			"/>
			<polygon class="st0" points="20.2,32.3 10.1,23.3 0.7,31.7 -0.7,30.3 10.1,20.7 20.2,29.7 30.4,20.7 41.6,30.2 40.4,31.8 
				30.4,23.3 			"/>
		</g>
	</g>
</g>
</svg>
